<svg xmlns="http://www.w3.org/2000/svg" xmlns:xlink="http://www.w3.org/1999/xlink" xml:space="preserve" width="1665.517" height="601.628"><defs><linearGradient id="b"><stop offset="0" style="stop-color:#47bfe8;stop-opacity:1"/><stop offset="1" style="stop-color:#1b98c5;stop-opacity:1"/></linearGradient><linearGradient xlink:href="#b" id="c" x1="-1731.089" x2="-306.222" y1="61.031" y2="61.031" gradientUnits="userSpaceOnUse"/><clipPath id="d" clipPathUnits="userSpaceOnUse"><use xlink:href="#a"/></clipPath></defs><g style="display:inline"><path d="M-1551.611-196.294c-2.61-.053-5.226-.012-7.873.056-21.302.247-42.929 3.921-64.754 10.566-35.973 10.95-68.115 34.754-87.475 69.335v.007c-18.597 33.192-24.249 75.374-15.033 113.154 7.076 29.01 19.5 55.77 38.072 76.344-5.895 13.71-6.725 26.08-7.7 38.938-1.533 18.523-.191 37.349 4.187 55.296 6.496 26.632 26.588 49.936 47.808 60.298v-.002c18.237 8.906 38.446 12.591 58.217 11.25l.096-.007.096-.007c17.062-1.235 34.486-4.766 52.445-10.233l.37-.114.366-.118c7.847-2.542 15.431-5.757 22.817-9.343 1.575 8.18 4.425 15.803 7.797 21.09 5.44 8.529 10.851 12.74 15.097 15.662 8.493 5.844 13.85 7.206 19.061 8.697 10.42 2.982 20.095 4.187 32.441 5.344 11.998 1.124 21.251 1.751 30.203 1.52 4.477-.115 8.523-.099 15.891-2.002a57.37 57.37 0 0 0 5.684-1.757c2.015 1.062 3.597 1.638 5.045 2.228 5.791 2.36 9.311 3.097 13.414 4.01 8.205 1.828 17.567 3.272 29.843 4.895l.797.107.8.074c11.263 1.055 19.987 1.648 28.788 1.342 4.4-.153 8.48-.145 16.076-2.307 3.799-1.08 8.7-2.348 16.3-8.101 6.916-5.237 17.39-18.182 20.323-34.974 13.387 7.057 27.899 11.437 42.487 12.392 18.355 1.202 37.226-1.608 54.512-8.706 14.383 9.27 30.763 14.29 46.513 15.322 11.997.785 24.16-3.548 34.864-10.356 2.81 4.244 5.764 7.863 8.33 10.129 6.525 5.762 11.088 7.488 14.46 8.772 6.746 2.567 9.762 2.634 12.499 2.923 5.474.579 8.86.43 12.93.273 8.136-.312 17.736-1.2 30.325-2.61l.514-.056.514-.072c12.641-1.73 22.26-3.258 30.576-5.128 4.158-.935 7.688-1.683 13.457-4.026 2.884-1.171 6.269-2.249 12.728-7.355 2.855-2.257 6.577-5.521 10.645-11.598.599.139 1.267.351 1.865.49 9.892 2.282 19.696 3.305 32.35 4.247 12.863.959 22.89 1.396 33.322.46 5.216-.467 10.308-.76 19.09-4.348.479-.195 1.14-.595 1.65-.814 6.218 4.512 10.604 3.686 13.926 4.807 5.515 1.862 9.724 2.674 14.383 3.48 9.317 1.614 19.946 2.695 33.451 3.701 8.373.624 17.708.803 28.371.705 6.14.114 10.836.163 16.852-.443 3.008-.303 5.742-.118 13.539-3.044 2.089-.784 4.807-1.627 8.25-3.742.61.426 1.157.94 1.775 1.355l.15.1.15.1c31.386 20.725 69.818 26.57 105.401 17.031.939 8.272 2.953 15.815 5.69 20.574 6.595 11.471 11.967 14.5 15.555 16.968 7.175 4.935 10.245 5.583 13.43 6.718 6.076 2.166 11.234 3.382 17.671 4.803 13.514 3.302 27.812 6.02 42.953 8.213h.002c8.004 1.159 14.33 1.944 21.336 2.103 3.503.08 6.89.273 13.47-1.04 3.291-.658 7.475-1.42 14.345-5.358 5.818-3.334 15.388-10.79 21.252-24.26l-.207.58L-309.411 5.267l-2.188 4.329c9.056-16.09 5.655-49.385-2.666-61.452-8.32-12.067-14.201-14.267-18.412-16.574-8.422-4.615-13.122-5.587-18.885-7.1-11.525-3.028-25.182-5.388-43.53-8.046-8.74-1.266-15.88-2.102-23.773-2.107-3.945-.003-7.962.01-14.378 1.472-3.89.887-10.024 1.416-17.141 6.455-.962-.985-1.98-2.086-2.809-2.839-5.494-5-9.298-6.897-12.476-8.473-6.358-3.152-10.603-4.286-15.239-5.52-9.272-2.468-19.383-4.225-32.394-6.11-12.976-1.88-23.016-3.04-32.858-3.135-4.92-.048-9.449-.222-17.564 1.793-4.057 1.008-9.265 2.235-17.11 7.89-5.916 4.266-14.112 13.535-18.702 25.715-12.503-4.175-25.59-6.049-38.516-5.802-12.653.242-25.254 2.34-37.863 5.85a123.868 123.868 0 0 0-13.455 4.61l-15.754-9.46c-24.121-14.486-36.029-11.887-58.791-13.583-9.703-.723-18.074-.836-26.592-.24l1.924-32.218c1.13-18.947-8.056-35.098-14.452-42.112-6.395-7.015-10.991-9.332-14.585-11.207-7.189-3.75-11.422-4.678-15.98-5.808-9.118-2.26-18.527-3.595-30.726-4.989l-.826-.093-.828-.064c-6.743-.502-12.892-.799-18.668-.85-8.67-.079-15.958-.056-26.04 2.446-5.042 1.25-11.055 2.717-19.71 9.114-8.654 6.397-21.242 23.134-22.408 42.673l-3.049 51.085c-6.075-.23-11.866.158-17.586.94-16.525 2.263-31.953 9.967-44.877 20.453-15.254-7.225-32.414-9.873-48.03-7.736-7.273.996-14.86 4.052-22.103 8.37-21.208-20.669-49.247-28.957-77.447-30.803-7.57-.495-14.914-.71-22.07-.615-21.444.287-41.19 3.126-59.906 10.873l-1.625.672-1.575.803c-17.955 9.16-27.412 26.935-31.877 43.245-14.117-10.915-30.54-17.837-47.369-21.227l2.242-29.876c1.63-21.707-11.19-42.178-20.054-49.784-8.864-7.606-15.27-9.732-21.084-11.704-11.63-3.945-21.864-5.237-34.7-6.44-7.82-.732-16.044-.916-25.363-.783-5.905.085-11.084.1-19.447 2.272-4.181 1.085-9.367 2.32-17.348 8.097-4.484 3.246-10.41 9.627-15.05 18.047-.57-6.855-1.457-13.736-3.178-20.792v-.002l-.629-2.577-.496-2.031-.639-1.98c-7.452-23.102-26.404-35.714-39.203-40.133-9.6-3.314-17.968-4.333-26.338-4.501zm524.99 145.97c-.02.018-.034.041-.053.06-.05.05-.106.094-.156.144zm24.123 2.36.693.554c-.11-.09-.233-.16-.343-.248-.12-.095-.231-.213-.35-.306zm-74.059 4.613.31.44c-.048-.07-.108-.125-.157-.196-.056-.079-.096-.165-.153-.244zm-605.02 123.802c.137.133.283.238.419.369.152.142.285.304.437.445z" style="color:#000;-inkscape-font-specification:&quot;Lilita One&quot;;display:inline;fill:url(#c);stroke-width:1.05697;stroke-linecap:round;-inkscape-stroke:none" transform="matrix(1.1689 0 0 1.1689 2023.458 229.475)"/><path d="M-1551.611-196.297c-2.61-.047-5.226-.01-7.873.05-21.302.221-42.929 3.51-64.754 9.458-35.973 9.802-68.115 31.109-87.475 62.062v.006c-18.597 29.711-24.249 67.468-15.033 101.286 7.076 25.967 19.5 49.92 38.072 68.336-5.895 12.272-6.725 23.344-7.7 34.853-1.533 16.58-.191 33.43 4.187 49.496 6.496 23.838 26.588 44.698 47.808 53.973v-.002c18.237 7.971 38.446 11.27 58.217 10.07l.096-.006.096-.006c17.062-1.106 34.486-4.266 52.445-9.16l.37-.102.366-.105c7.847-2.276 15.431-5.154 22.817-8.363 1.575 7.321 4.425 14.145 7.797 18.877 5.44 7.635 10.851 11.403 15.097 14.02 8.493 5.23 13.85 6.45 19.061 7.784 10.42 2.67 20.095 3.748 32.441 4.784 11.998 1.006 21.251 1.567 30.203 1.36 4.477-.102 8.523-.088 15.891-1.792a62.442 62.442 0 0 0 5.684-1.572c2.015.95 3.597 1.465 5.045 1.994 5.791 2.113 9.311 2.772 13.414 3.59 8.205 1.635 17.567 2.928 29.843 4.38l.797.096.8.067c11.263.944 19.987 1.475 28.788 1.2 4.4-.136 8.48-.129 16.076-2.064 3.799-.967 8.7-2.102 16.3-7.252 6.916-4.687 17.39-16.274 20.323-31.304 13.387 6.316 27.899 10.237 42.487 11.091 18.355 1.076 37.226-1.439 54.512-7.793 14.383 8.299 30.763 12.792 46.513 13.715 11.997.703 24.16-3.175 34.864-9.27 2.81 3.8 5.764 7.039 8.33 9.067 6.525 5.158 11.088 6.703 14.46 7.852 6.746 2.298 9.762 2.358 12.499 2.617 5.474.518 8.86.384 12.93.244 8.136-.279 17.736-1.074 30.325-2.336l.514-.05.514-.065c12.641-1.55 22.26-2.916 30.576-4.59 4.158-.837 7.688-1.506 13.457-3.604 2.884-1.048 6.269-2.013 12.728-6.584 2.855-2.02 6.577-4.941 10.645-10.38.599.124 1.267.314 1.865.437 9.892 2.043 19.696 2.959 32.35 3.803 12.863.858 22.89 1.249 33.322.412 5.216-.418 10.308-.682 19.09-3.893.479-.175 1.14-.533 1.65-.728 6.218 4.039 10.604 3.299 13.926 4.303 5.515 1.666 9.724 2.393 14.383 3.115 9.317 1.444 19.946 2.412 33.451 3.312 8.373.559 17.708.72 28.371.631 6.14.102 10.836.147 16.852-.396 3.008-.272 5.742-.106 13.539-2.725 2.089-.702 4.807-1.456 8.25-3.35.61.382 1.157.842 1.775 1.213l.15.09.15.09c31.386 18.55 69.818 23.782 105.401 15.244.939 7.404 2.953 14.156 5.69 18.416 6.595 10.268 11.967 12.979 15.555 15.188 7.175 4.417 10.245 4.997 13.43 6.013 6.076 1.94 11.234 3.028 17.671 4.3 13.514 2.955 27.812 5.388 42.953 7.35h.002c8.004 1.038 14.33 1.741 21.336 1.884 3.503.07 6.89.244 13.47-.932 3.291-.588 7.475-1.271 14.345-4.795 5.818-2.985 15.388-9.658 21.252-21.715l-.207.518 127.625-253.293-2.188 3.875c9.056-14.402 5.655-44.205-2.666-55.006-8.32-10.802-14.201-12.77-18.412-14.836-8.422-4.13-13.122-5-18.885-6.356-11.525-2.71-25.182-4.822-43.53-7.2-8.74-1.134-15.88-1.882-23.773-1.887-3.945-.003-7.962.008-14.378 1.318-3.89.794-10.024 1.267-17.141 5.777-.962-.88-1.98-1.866-2.809-2.54-5.494-4.477-9.298-6.174-12.476-7.585-6.358-2.821-10.603-3.837-15.239-4.941-9.272-2.209-19.383-3.782-32.394-5.469-12.976-1.682-23.016-2.722-32.858-2.807-4.92-.042-9.449-.198-17.564 1.606-4.057.902-9.265 2-17.11 7.062-5.916 3.819-14.112 12.115-18.702 23.018-12.503-3.737-25.59-5.414-38.516-5.193-12.653.216-25.254 2.094-37.863 5.236a134.053 134.053 0 0 0-13.455 4.127l-15.754-8.469c-24.121-12.966-36.029-10.64-58.791-12.158-9.703-.647-18.074-.748-26.592-.215l1.924-28.838c1.13-16.96-8.056-31.416-14.452-37.695-6.395-6.279-10.991-8.353-14.585-10.031-7.189-3.358-11.422-4.188-15.98-5.2-9.118-2.023-18.527-3.217-30.726-4.464l-.826-.084-.828-.057c-6.743-.45-12.892-.715-18.668-.762-8.67-.07-15.958-.05-26.04 2.19-5.042 1.12-11.055 2.432-19.71 8.158-8.654 5.726-21.242 20.707-22.408 38.197l-3.049 45.727c-6.075-.207-11.866.14-17.586.842-16.525 2.024-31.953 8.92-44.877 18.306-15.254-6.467-32.414-8.837-48.03-6.924-7.273.892-14.86 3.627-22.103 7.493-21.208-18.502-49.247-25.92-77.447-27.573-7.57-.443-14.914-.636-22.07-.55-21.444.256-41.19 2.798-59.906 9.732l-1.625.602-1.575.718c-17.955 8.2-27.412 24.11-31.877 38.71-14.117-9.771-30.54-15.966-47.369-19l2.242-26.743c1.63-19.43-11.19-37.754-20.054-44.562-8.864-6.809-15.27-8.712-21.084-10.477-11.63-3.53-21.864-4.687-34.7-5.764-7.82-.655-16.044-.82-25.363-.7-5.905.075-11.084.09-19.447 2.032-4.181.972-9.367 2.077-17.348 7.248-4.484 2.906-10.41 8.618-15.05 16.155-.57-6.137-1.457-12.296-3.178-18.612v-.002l-.629-2.306-.496-1.819-.639-1.771c-7.452-20.68-26.404-31.969-39.203-35.924-9.6-2.966-17.968-3.879-26.338-4.03zm524.99 130.658c-.02.017-.034.038-.053.055-.05.045-.106.084-.156.129zm24.123 2.114.693.496c-.11-.08-.233-.143-.343-.223-.12-.084-.231-.19-.35-.273zm-74.059 4.129.31.394c-.048-.064-.108-.112-.157-.176-.056-.07-.096-.148-.153-.218zm-605.02 110.816c.137.118.283.213.419.33.152.127.285.272.437.398z" style="color:#000;-inkscape-font-specification:&quot;Lilita One&quot;;display:inline;fill:#fff;stroke-linecap:round;-inkscape-stroke:none;fill-opacity:1" transform="matrix(1.1689 0 0 1.1689 2023.458 229.475)"/></g><g clip-path="url(#d)" style="display:inline" transform="matrix(1.1689 0 0 1.1689 2023.458 229.475)"><path id="a" d="M-1558.855-149.203c-16.817.16-34.488 2.764-53.012 7.812-27.272 7.432-47.259 21.31-59.963 41.631-12.517 19.994-15.691 41.312-9.522 63.953 6.17 22.641 16.398 39.891 30.686 51.752 5.074 4.422 11.658 8.295 19.75 11.617 8.279 2.996 14.791 5.09 19.539 6.284 4.677.936 11.659 2.212 20.943 3.828 9.285 1.616 15.892 3.547 19.82 5.793 3.86 1.989 6.314 4.914 7.366 8.773 2.314 8.49-2.062 14.241-13.125 17.256-10.806 2.945-23.167 2.72-37.082-.674-13.658-3.464-23.457-6.459-29.397-8.986-3.462 4.537-5.685 12.605-6.67 24.205-1.054 11.343-.146 22.29 2.729 32.838 2.875 10.549 9.96 18.291 21.256 23.228 11.295 4.938 23.469 7.01 36.52 6.217 13.308-.862 27.68-3.397 43.117-7.603 31.505-9.138 52.464-24.523 62.877-46.155 10.412-21.631 11.867-46.212 4.365-73.742-5.75-21.097-17.195-36.22-34.336-45.369-8.372-4.352-16.007-7.522-22.906-9.512-6.712-2.316-12.956-3.932-18.733-4.845-5.59-1.241-10.56-2.235-14.91-2.985s-7.695-1.36-10.033-1.828c-10.712-1.78-16.839-5.498-18.381-11.158-2.524-9.262 2.647-15.647 15.512-19.152 13.121-3.576 29.071-3.363 47.851.64 1.895-2.174 3.816-10.85 5.76-26.03 1.874-15.435 1.583-27.656-.871-36.661l-.63-2.315c-2.268-6.292-11.774-9.23-28.52-8.812zm673.824 10.603c-13.673-.11-20.617 1.432-20.83 4.625l-18.26 273.791c-.213 3.193 11.256 5.562 34.404 7.106 23.415 1.561 35.238.613 35.469-2.846l5.88-88.205 33.604 91.238c1.703 2.52 15.326 4.63 40.87 6.334 6.917.462 15.593.64 26.023.534 10.678.177 15.785-.283 15.324-1.383l-52.387-116.145 57.528-81.15c-5.676-3.051-18.89-5.27-39.645-6.654-20.754-1.385-32.195-.143-34.324 3.724l-44.383 70.402 10.22-153.26c.178-2.66-11.014-5.144-33.577-7.45-6.053-.404-11.359-.624-15.916-.66zm-543.649 28.38c-8.304.106-12.535 1.088-12.691 2.949l-22.895 273.04c-.312 3.72 10.562 6.507 32.618 8.356 22.32 1.872 33.582 1.612 33.783-.78l10.828-129.148c8.174-4.934 15.185-7.156 21.031-6.666 8.504.713 12.21 7.58 11.117 20.602l-9.826 117.19c-.156 1.86 11.425 4.167 34.742 6.925 20.727 1.738 31.192 1.413 31.393-.978l10.36-123.567c2.45-29.23-1.723-49.652-12.524-61.262-10.779-11.875-26.267-18.66-46.463-20.353-7.706-.646-19.19.666-34.45 3.935l6.686-79.72c.401-4.783-10.559-8.111-32.88-9.983-5.581-.468-12.524-.647-20.829-.54zm882.11 43.738c-6.11-.053-9.261.647-9.45 2.101l44.036 189.233-45.31 78.828c-.701 1.253 4.98 3.067 17.042 5.437 12.028 2.635 25.048 4.86 39.064 6.678 14.281 1.851 21.657 2.002 22.127.45L-351.436-37.05c2.033-3.232-14.536-7.13-49.709-11.69-15.338-1.988-23.673-1.993-25.005-.015l-39.612 90.861-16.424-97.318c-.45-2.747-12.84-5.7-37.17-8.853-12.032-1.56-21.104-2.366-27.214-2.418zm-640.84 13.746c-17.743.212-32.45 2.482-44.123 6.806-4.666 2.131-7.25 7.454-7.748 15.973-.484 8.252 2.611 19.253 9.285 33 18.884-3.167 33.384-4.456 43.5-3.863 8.252.483 13.382 1.855 15.387 4.11 2.286 2.003 3.226 6.464 2.82 13.386l-.234 3.992-21.963-1.287c-51.911-3.042-79.137 17.135-81.68 60.527-1.108 18.901 4.589 35.662 17.088 50.285 12.5 14.623 28.467 22.504 47.9 23.643 25.823 1.513 45.307-5.092 58.457-19.815 1.865 4.65 4.702 8.69 8.508 12.118 8.333 8.235 19.685 12.776 34.06 13.619 7.987.468 14.51-3.693 19.565-12.479 5.322-8.77 8.255-17.815 8.8-27.133.547-9.317-.354-16.715-2.704-22.195-2.084-5.464-5.39-8.33-9.916-8.596l-13.576-.794 3.697-63.092c1.42-24.225-2.97-42.781-13.166-55.666-10.181-13.152-28.58-20.505-55.201-22.065-6.589-.386-12.842-.545-18.756-.474zm230.15 8.375c-3.138-.12-6.625.057-10.463.527-9.793 1.2-19.05 5.692-27.767 13.477-8.486 7.487-14.844 16.998-19.072 28.53-1.136-9.263-6.11-16.982-14.926-23.155-8.849-6.439-19.23-8.929-31.14-7.47-16.94 2.076-23.66 17.407-20.157 45.993.94 7.676 2.926 14.016 5.957 19.018 3.263 4.704 7.013 6.796 11.248 6.277l10.719-1.313 16.15 131.815c.195 1.588 12.368 1.17 36.52-1.252 24.086-2.951 36.016-5.352 35.789-7.205l-13.573-110.772c-1.945-15.88 2.11-24.437 12.168-25.67 3.441-.421 7.41.167 11.905 1.766 4.726 1.302 7.353 1.918 7.882 1.854.53-.065 1.826-2.642 3.89-7.73 2.062-5.09 3.637-13.073 4.722-23.952 1.35-10.912 1.781-18.352 1.295-22.322-.52-4.235-1.306-7.363-2.36-9.383-3.112-5.664-9.373-8.675-18.787-9.033zm320.008 4.367c-8.492.145-17.588 1.428-27.291 3.846-25.875 6.447-45 21.242-57.371 44.386-12.112 23.08-14.3 50.145-6.563 81.196 7.673 30.791 22.5 52.793 44.479 66.003 21.915 12.953 45.68 16.239 71.297 9.856 25.616-6.383 45.385-16.393 59.3-30.03 4.337-3.553 5.57-9.081 3.7-16.585-1.934-7.763-7.393-16.435-16.375-26.014-3.037-3.365-4.654-4.886-4.848-4.562-14.238 12.342-30.414 20.77-48.527 25.283-8.28 2.063-14.974 2.219-20.082.469-4.914-2.074-8.34-6.992-10.274-14.754l26.784-6.674c48.128-11.993 66.968-38.947 56.523-80.865-4.707-18.89-15.82-33.16-33.34-42.811-10.788-6.072-23.259-8.986-37.412-8.744zm-7.041 62.066c7.416-.09 12.226 4.282 14.426 13.112 2.192 8.797-.98 14.259-9.52 16.386l-20.96 5.223-2.999-12.031c-1.418-5.693-.799-10.382 1.856-14.067 2.849-4.007 6.73-6.624 11.646-7.85 1.99-.495 3.84-.752 5.551-.773zm-540.123 38.61c.752-.005 1.528.015 2.326.062l11.18.656-1.8 30.746c-4.228 3.76-8.87 5.49-13.929 5.194-4.791-.281-8.7-1.978-11.722-5.094-3.008-3.382-4.338-8-3.994-13.857.687-11.73 6.665-17.633 17.939-17.707z" style="color:#000;-inkscape-font-specification:&quot;Lilita One&quot;;fill:#006d8d;stroke-linecap:round;-inkscape-stroke:none"/><path d="M-1724.552-223.101h1429.799v509.712h-1429.799z" style="display:inline;fill:#3da0c8;fill-opacity:1;stroke:none;stroke-width:120;stroke-linecap:round;stroke-dasharray:none;stroke-opacity:1"/><path d="M-1750.691-35.909s284.16 90.378 431.477 99.364c171.25 10.447 340.366-57.225 511.899-53.684 183.07 3.78 543.502 79.795 543.502 79.795l3.257 247.528h-1538.906Z" style="fill:#47bfe8;stroke-width:120;stroke-linecap:round"/></g></svg>